{"title":"HOUSE ON HAUNTED HILL.DEWSTRR","uid":4790265,"size":1001514626,"categoryP":"video","categoryS":"movies","magnet":"?xt=urn:btih:ad484eb182eb0269dfe398ca9037cfb99e3e621d&amp;dn=HOUSE+ON+HAUNTED+HILL.DEWSTRR&amp;tr=udp%3A%2F%2Ftracker.openbittorrent.com%3A80&amp;tr=udp%3A%2F%2Fopen.demonii.com%3A1337&amp;tr=udp%3A%2F%2Ftracker.coppersurfer.tk%3A6969&amp;tr=udp%3A%2F%2Fexodus.desync.com%3A6969","seeders":2,"leechers":0,"uploader":"dewstrr505","files":14,"time":1237690976,"description":"HOUSE ON HAUNTED HILL DVDRIP\n\nHorror | Mystery | Thriller  \n\nWhen twisted billionaire Stephen Price and his devilish wife, Evelyn, offer six strangers one million dollars each, there is only one rule to the game: they'll have to survive one night in a former mental institution, haunted by the ghosts of the inmates killed there, and an insane doctor who did unspeakable things... At first, everyone is having fun, thinking that the whole thing is a joke. But once the entire house automatically seals itself shut, they realize that this is no joke\n &lt;a href=&quot;\nhttp://www.imdb.com/title/tt0185371/&quot; rel=&quot;nofollow&quot; target=&quot;_NEW&quot;&gt;\nhttp://www.imdb.com/title/tt0185371/&lt;/a&gt;\n\nFormat :      AVI\nFormat/Info :     Audio Video Interleave\nFile size :     955 MiB\nDuration :     1h 32mn\nOverall bit rate :     1 438 Kbps\n\nVideo\nFormat :     MPEG-4 Visual\nFormat settings, BVOP :     Yes\nFormat settings, QPel :     No\nFormat settings, GMC :     No warppoints\nFormat settings, Matrix :     Default\nCodec ID :     DX50\nCodec ID/Hint :     DivX 5\nDuration :     1h 32mn\nBit rate :     1 300 Kbps\nWidth :     720 pixels\nHeight :     400 pixels\nDisplay aspect ratio :     16/9\nFrame rate :     23.976 fps\nResolution :     24 bits\nColorimetry :     4:2:0\nScan type :     Progressive\nBits/(Pixel*Frame) :     0.188\nStream size :     864 MiB (90%)\nTitle :     Video\nWriting library :     DivX 6.8.2 (UTC 2008-05-17)\n\nAudio\nFormat :     MPEG Audio\nFormat version :     Version 1\nFormat profile :     Layer 3\nCodec ID :     55\nCodec ID/Hint :     MP3\nDuration :     1h 32mn\nBit rate mode :     Constant\nBit rate :     128 Kbps\nChannel(s) :     2 channels\nSampling rate :     48.0 KHz\nResolution :     16 bits\nStream size :     85.0 MiB (9%)\nAlignment :     Split accross interleaves\nInterleave, duration :     42 ms (1.00 video frame)\nInterleave, preload duration :     500 ms\nTitle :     Audio\nWriting library :     LAME3.92\n\nGeneral\nComplete name : HOUSE ON HAUNTED HILL.DEWSTRRHOHH 1.sfv\nFile size :     1.52 KiB\n\nGeneral\nComplete name :HOUSE ON HAUNTED\nFile size :     47.0 Bytes\n[IMG]http://i203.photobucket.com/albums/aa38/476352oop/MOVIES/HOHH1.jpg[/IMG]\n[IMG]http://i203.photobucket.com/albums/aa38/476352oop/MOVIES/HOHH2.jpg[/IMG]\n[IMG]http://i203.photobucket.com/albums/aa38/476352oop/MOVIES/HOHH3.jpg[/IMG]\n[IMG]http://i203.photobucket.com/albums/aa38/476352oop/MOVIES/HOHH4.jpg[/IMG]\n[IMG]http://i203.photobucket.com/albums/aa38/476352oop/MOVIES/HOHH5.jpg[/IMG]\n[IMG]http://i203.photobucket.com/albums/aa38/476352oop/MOVIES/HOHH6.jpg[/IMG]\n[IMG]http://i203.photobucket.com/albums/aa38/476352oop/MOVIES/HOHH7.jpg[/IMG]\n[IMG]http://i203.photobucket.com/albums/aa38/476352oop/MOVIES/HOHH8.jpg[/IMG]\n[IMG]http://i203.photobucket.com/albums/aa38/476352oop/MOVIES/HOHH9.jpg[/IMG]\n[IMG]http://i203.photobucket.com/albums/aa38/476352oop/MOVIES/HOHH10.jpg[/IMG]\nburned with windows [with a couple of other movies on a disk] and played on my philips divx ultra certified dvd player\nbe sure to set your dvd player on the correct aspect ratio","torrent":{"xt":"urn:btih:ad484eb182eb0269dfe398ca9037cfb99e3e621d","amp;dn":"HOUSE+ON+HAUNTED+HILL.DEWSTRR","amp;tr":["udp%3A%2F%2Ftracker.openbittorrent.com%3A80","udp%3A%2F%2Fopen.demonii.com%3A1337","udp%3A%2F%2Ftracker.coppersurfer.tk%3A6969","udp%3A%2F%2Fexodus.desync.com%3A6969"],"infoHash":"ad484eb182eb0269dfe398ca9037cfb99e3e621d","infoHashBuffer":{"type":"Buffer","data":[173,72,78,177,130,235,2,105,223,227,152,202,144,55,207,185,158,62,98,29]},"announce":[],"urlList":[]}}